# xmcd
#
# Track frame offsets:
#   150
#   36732
#   75772
#   124618
#   175696
#   207628
#   230314
#   267396
#   292484
#
# Disc length: 4269 seconds
#
# Revision: 0
# Processed by: cddbd v1.5.2PL0 Copyright (c) Steve Scherf et al.
# Submitted via: GXTranscoder 2.0.1939
#
DISCID=8310ab09
DTITLE=Popa Chubby - Live in Bonn 1998
DYEAR=1998
DGENRE=Blues
TTITLE0=You gotta love somebody
TTITLE1=Real thing
TTITLE2=Coffeine and nicotine
TTITLE3=Nobody loves me like I love myself
TTITLE4=Sweet goddess of love and beer (part 1)
TTITLE5=Sweet goddess of love and beer (part 2)
TTITLE6=Dance the night away
TTITLE7=Wild thing - Purple Haze
TTITLE8=Nobody loves you when you're down and out
EXTD=
EXTT0=
EXTT1=
EXTT2=
EXTT3=
EXTT4=
EXTT5=
EXTT6=
EXTT7=
EXTT8=
PLAYORDER=
